<svg xmlns="http://www.w3.org/2000/svg" viewBox="0 0 25.7 18"><path d="M12.88235285 0S4.82352938 0 2.8235294.52941176C1.76470587.82352941.88235293 1.70588234.52941176 2.8235294 0 4.82352938 0 8.99999994 0 8.99999994s0 4.17647056.52941176 6.17647054c.29411765 1.11764705 1.17647058 1.94117646 2.29411763 2.29411763 2.05882352.52941176 10.05882346.52941176 10.05882346.52941176s8.05882347 0 10.05882346-.52941176c1.11764705-.29411764 1.94117646-1.17647058 2.29411763-2.29411763.52941176-1.99999998.52941176-6.17647054.52941176-6.17647054s0-4.17647056-.52941176-6.17647055C24.9411763 1.70588234 24.05882336.88235293 22.94117631.52941176 20.8823528 0 12.88235285 0 12.88235285 0zm-2.58823528 5.11764702l6.70588231 3.88235292-6.7058823 3.88235291V5.11764702z" fill="#828c8e"/></svg>