<svg xmlns="http://www.w3.org/2000/svg" preserveAspectRatio="xMidYMid" width="21" height="16"><path d="M21.011 14.522c0 .798-.63 1.464-1.333 1.464H1.333C.63 15.986 0 15.32 0 14.522V1.529C0 .757.582.118 1.284.091l.025-.08h18.345l.024.08c.727 0 1.333.639 1.333 1.438v12.993zM0 15.986zm0 0zm19.387-3.541V3.552L14.08 7.999l5.307 4.446zm0-10.65H1.624c2.956 2.45 5.913 4.899 8.869 7.375a1259.37 1259.37 0 0 1 8.894-7.375zm0 12.407l-6.398-5.298-1.696 1.438H9.669L7.997 8.93l-6.373 5.272h17.763zM6.907 7.999L1.624 3.552v8.893l5.283-4.446z" fill-rule="evenodd" fill="#fff"/></svg>