<svg xmlns="http://www.w3.org/2000/svg" preserveAspectRatio="xMidYMid" width="18" height="13"><path d="M14.015 2.03c-.011-.006-.022-.018-.033-.029a3.156 3.156 0 0 0-2.309-.836l-.027-.06c.005-.006.011-.006.016-.006.802-.177 1.278-.359 1.419-.556.049-.16-.01-.248-.186-.27-.403.05-.775.132-1.108.259.421-.259.585-.44.492-.534-.415.011-.863.215-1.333.617.175-.287.241-.441.197-.469-.223.149-.42.309-.589.48a8.866 8.866 0 0 0-.857 1.052l-.011.027a9.212 9.212 0 0 0-1.19 2.654l-.087.067-.016.015a4.42 4.42 0 0 0-1.229-1.025 14.832 14.832 0 0 0-2.02-1.029 17.46 17.46 0 0 0-2.571-1.034c-.005.93.47 1.673 1.414 2.213v.016a3.128 3.128 0 0 0-.966.138c.06.865.699 1.459 1.911 1.789l-.006.017a1.418 1.418 0 0 0-1.174.463c.399.749 1.103 1.106 2.124 1.079-.202.099-.36.208-.464.33a.665.665 0 0 0-.186.661c.219.379.612.555 1.19.528l.033.039-.016.016c-.999.992-2.205 1.438-3.62 1.344l-.021.011c-.863-.006-1.785-.402-2.784-1.195 1.004 1.387 2.336 2.389 3.985 3.018 1.888.6 3.777.644 5.66.131h.033c1.829-.507 3.379-1.547 4.656-3.121.59-.827.961-1.613 1.108-2.368.956.033 1.643-.231 2.069-.793l-.01-.016c-.317.109-.94.077-1.862-.105v-.099c0-.005 0-.005.006 0 1.009-.11 1.604-.424 1.796-.942a2.936 2.936 0 0 1-2.086.023c-.125-.915-.573-1.746-1.348-2.5z" fill-rule="evenodd" fill="#828c8e"/></svg>