<svg width="357" height="350" viewBox="0 0 357 384" xmlns="http://www.w3.org/2000/svg" xmlns:xlink="http://www.w3.org/1999/xlink"><defs><filter x="-50%" y="-50%" width="200%" height="200%" filterUnits="objectBoundingBox" id="a"><feOffset dy="1" in="SourceAlpha" result="shadowOffsetOuter1"/><feGaussianBlur stdDeviation="1" in="shadowOffsetOuter1" result="shadowBlurOuter1"/><feColorMatrix values="0 0 0 0 0 0 0 0 0 0 0 0 0 0 0 0 0 0 0.104797894 0" in="shadowBlurOuter1" result="shadowMatrixOuter1"/><feMerge><feMergeNode in="shadowMatrixOuter1"/><feMergeNode in="SourceGraphic"/></feMerge></filter><filter x="-50%" y="-50%" width="200%" height="200%" filterUnits="objectBoundingBox" id="b"><feOffset dy="1" in="SourceAlpha" result="shadowOffsetOuter1"/><feGaussianBlur stdDeviation="1" in="shadowOffsetOuter1" result="shadowBlurOuter1"/><feColorMatrix values="0 0 0 0 0 0 0 0 0 0 0 0 0 0 0 0 0 0 0.104797894 0" in="shadowBlurOuter1" result="shadowMatrixOuter1"/><feMerge><feMergeNode in="shadowMatrixOuter1"/><feMergeNode in="SourceGraphic"/></feMerge></filter><filter x="-50%" y="-50%" width="200%" height="200%" filterUnits="objectBoundingBox" id="c"><feOffset dy="1" in="SourceAlpha" result="shadowOffsetOuter1"/><feGaussianBlur stdDeviation="1" in="shadowOffsetOuter1" result="shadowBlurOuter1"/><feColorMatrix values="0 0 0 0 0 0 0 0 0 0 0 0 0 0 0 0 0 0 0.104797894 0" in="shadowBlurOuter1" result="shadowMatrixOuter1"/><feMerge><feMergeNode in="shadowMatrixOuter1"/><feMergeNode in="SourceGraphic"/></feMerge></filter><path id="d" d="M68.587 48.146V.136H0v48.01h68.587z"/><filter x="-50%" y="-50%" width="200%" height="200%" filterUnits="objectBoundingBox" id="f"><feOffset dy="1" in="SourceAlpha" result="shadowOffsetOuter1"/><feGaussianBlur stdDeviation="1" in="shadowOffsetOuter1" result="shadowBlurOuter1"/><feColorMatrix values="0 0 0 0 0 0 0 0 0 0 0 0 0 0 0 0 0 0 0.104797894 0" in="shadowBlurOuter1" result="shadowMatrixOuter1"/><feMerge><feMergeNode in="shadowMatrixOuter1"/><feMergeNode in="SourceGraphic"/></feMerge></filter><filter x="-50%" y="-50%" width="200%" height="200%" filterUnits="objectBoundingBox" id="g"><feOffset dy="1" in="SourceAlpha" result="shadowOffsetOuter1"/><feGaussianBlur stdDeviation="1" in="shadowOffsetOuter1" result="shadowBlurOuter1"/><feColorMatrix values="0 0 0 0 0 0 0 0 0 0 0 0 0 0 0 0 0 0 0.104797894 0" in="shadowBlurOuter1" result="shadowMatrixOuter1"/><feMerge><feMergeNode in="shadowMatrixOuter1"/><feMergeNode in="SourceGraphic"/></feMerge></filter><linearGradient x1="50%" y1="0%" x2="50%" y2="100%" id="h"><stop stop-color="#21A464" offset="0%"/><stop stop-color="#228257" offset="100%"/></linearGradient><filter x="-50%" y="-50%" width="200%" height="200%" filterUnits="objectBoundingBox" id="i"><feOffset dy="1" in="SourceAlpha" result="shadowOffsetOuter1"/><feGaussianBlur stdDeviation="1" in="shadowOffsetOuter1" result="shadowBlurOuter1"/><feColorMatrix values="0 0 0 0 0 0 0 0 0 0 0 0 0 0 0 0 0 0 0.104797894 0" in="shadowBlurOuter1" result="shadowMatrixOuter1"/><feMerge><feMergeNode in="shadowMatrixOuter1"/><feMergeNode in="SourceGraphic"/></feMerge></filter><filter x="-50%" y="-50%" width="200%" height="200%" filterUnits="objectBoundingBox" id="j"><feOffset dy="1" in="SourceAlpha" result="shadowOffsetOuter1"/><feGaussianBlur stdDeviation="1" in="shadowOffsetOuter1" result="shadowBlurOuter1"/><feColorMatrix values="0 0 0 0 0 0 0 0 0 0 0 0 0 0 0 0 0 0 0.104797894 0" in="shadowBlurOuter1" result="shadowMatrixOuter1"/><feMerge><feMergeNode in="shadowMatrixOuter1"/><feMergeNode in="SourceGraphic"/></feMerge></filter><path id="k" d="M.11 36.982h28.298V.012H.11v36.97z"/><filter x="-50%" y="-50%" width="200%" height="200%" filterUnits="objectBoundingBox" id="m"><feOffset dy="1" in="SourceAlpha" result="shadowOffsetOuter1"/><feGaussianBlur stdDeviation="1" in="shadowOffsetOuter1" result="shadowBlurOuter1"/><feColorMatrix values="0 0 0 0 0 0 0 0 0 0 0 0 0 0 0 0 0 0 0.104797894 0" in="shadowBlurOuter1" result="shadowMatrixOuter1"/><feMerge><feMergeNode in="shadowMatrixOuter1"/><feMergeNode in="SourceGraphic"/></feMerge></filter><path id="n" d="M0 22.732h31.698V0H0v22.732z"/><filter x="-50%" y="-50%" width="200%" height="200%" filterUnits="objectBoundingBox" id="p"><feOffset dy="1" in="SourceAlpha" result="shadowOffsetOuter1"/><feGaussianBlur stdDeviation="1.5" in="shadowOffsetOuter1" result="shadowBlurOuter1"/><feColorMatrix values="0 0 0 0 0 0 0 0 0 0 0 0 0 0 0 0 0 0 0.104797894 0" in="shadowBlurOuter1" result="shadowMatrixOuter1"/><feMerge><feMergeNode in="shadowMatrixOuter1"/><feMergeNode in="SourceGraphic"/></feMerge></filter><circle id="q" cx="32" cy="32" r="32"/></defs><g fill="none" fill-rule="evenodd"><rect width="80" height="80" rx="8.5" stroke="#CFD9E2" stroke-width=".735" fill="#FFF" stroke-linecap="square" filter="url(#a)" stroke-opacity=".304" transform="translate(260 156)"/><path d="M309.29 203.317c-.998 1.121-2.146 1.757-3.445 1.757h-.214a4.557 4.557 0 0 1-2.177-.529 5.007 5.007 0 0 1-1.92-1.726c-.515-.734-.809-1.51-.809-2.36v-.258c0-.836.173-1.628.574-2.377a5.156 5.156 0 0 1 1.782-1.968 4.342 4.342 0 0 1 2.466-.757h.084c.814 0 1.585.17 2.313.546a4.93 4.93 0 0 1 1.817 1.672c.456.72.727 1.5.814 2.346.014.176.02.33.02.503 0 1.148-.434 2.185-1.304 3.151m4.515-7.74c-.812-1.41-1.957-2.541-3.384-3.393a8.977 8.977 0 0 0-3.423-1.195v-4.48c1.256-.535 2.016-1.717 2.016-3.097 0-1.881-1.498-3.405-3.36-3.405-1.864 0-3.34 1.524-3.34 3.405 0 1.38.764 2.562 2.019 3.096v4.482a9.148 9.148 0 0 0-3.021.943c-1.93-1.48-8.278-6.332-11.979-9.165.088-.32.144-.649.144-.996 0-2.083-1.676-3.772-3.741-3.772-2.065 0-3.737 1.69-3.737 3.772 0 2.083 1.67 3.771 3.735 3.771.703 0 1.355-.207 1.917-.55l.78.599 10.732 7.805a8.897 8.897 0 0 0-1.484 1.795c-.857 1.368-1.346 2.872-1.346 4.514v.342c0 1.153.182 2.242.552 3.264a8.523 8.523 0 0 0 1.373 2.437l-3.57 3.604a2.86 2.86 0 0 0-3.041.672 2.91 2.91 0 0 0-.846 2.06c.001.78.3 1.51.846 2.061.546.551 1.27.854 2.042.854.771 0 1.496-.303 2.042-.854a2.91 2.91 0 0 0 .846-2.061c0-.3-.046-.594-.133-.874l3.68-3.716a9.44 9.44 0 0 0 1.637.893 9.467 9.467 0 0 0 3.827.803h.256c1.544 0 3-.357 4.368-1.106a9.11 9.11 0 0 0 3.44-3.248c.858-1.385 1.347-2.91 1.347-4.594v-.083c0-1.656-.397-3.185-1.194-4.584" fill="#F47721"/><rect width="100" height="100" rx="9" stroke="#CFD9E2" stroke-width=".735" fill="#FFF" stroke-linecap="square" opacity=".85" filter="url(#b)" stroke-opacity=".304" transform="translate(180 216)"/><g fill="#0F81DE"><path d="M219.908 242.228l-14.514 9.566 10.035 8.113 14.635-9.122-10.156-8.557zm-14.514 25.792l14.514 9.566 10.156-8.557-14.634-9.122-10.036 8.113zm24.67 1.009l10.156 8.557 14.514-9.566-10.036-8.113-14.634 9.122zm24.67-17.235l-14.514-9.566-10.156 8.557 14.634 9.122 10.036-8.113z"/><path d="M230.094 270.87l-10.186 8.532-4.359-2.873v3.22l14.545 8.805 14.544-8.804v-3.221l-4.358 2.873-10.186-8.532z"/></g><rect width="100" height="100" rx="9" stroke="#CFD9E2" stroke-width=".735" fill="#FFF" stroke-linecap="square" filter="url(#c)" stroke-opacity=".304" transform="translate(39 24)"/><g transform="translate(55 50.018)"><mask id="e" fill="#fff"><use xlink:href="#d"/></mask><path d="M28.541 5.372c2.212-2.305 5.291-3.734 8.698-3.734 4.528 0 8.477 2.524 10.58 6.272A14.629 14.629 0 0 1 53.8 6.64c8.167 0 14.787 6.679 14.787 14.917 0 8.239-6.62 14.918-14.787 14.918-.996 0-1.97-.101-2.913-.29-1.852 3.303-5.382 5.536-9.434 5.536-1.695 0-3.3-.392-4.728-1.09-1.877 4.418-6.253 7.516-11.352 7.516-5.31 0-9.836-3.36-11.573-8.073-.76.16-1.546.245-2.353.245C5.125 40.318 0 35.14 0 28.751c0-4.282 2.301-8.02 5.724-10.02a13.248 13.248 0 0 1-1.096-5.291c0-7.347 5.964-13.304 13.32-13.304 4.32 0 8.159 2.053 10.593 5.236" fill="#0092DA" mask="url(#e)"/></g><path d="M64.934 75.05c-.044.114.015.137.029.156.129.094.259.161.391.237.7.37 1.36.479 2.051.479 1.407 0 2.281-.748 2.281-1.953v-.023c0-1.114-.986-1.52-1.91-1.812l-.122-.038c-.697-.227-1.299-.422-1.299-.882v-.023c0-.394.352-.683.897-.683a4.05 4.05 0 0 1 1.787.458s.137.088.187-.044l.286-.77c.026-.074-.02-.13-.068-.159-.53-.321-1.26-.541-2.016-.541h-.14c-1.289 0-2.188.779-2.188 1.894v.023c0 1.175.992 1.557 1.921 1.822l.15.046c.677.208 1.26.387 1.26.863v.024c0 .436-.38.76-.99.76a3.32 3.32 0 0 1-1.813-.52c-.099-.06-.155-.1-.232-.147-.04-.025-.14-.069-.185.063l-.277.77zm20.596 0c-.043.114.015.137.03.156.129.094.259.161.39.237.7.37 1.361.479 2.052.479 1.407 0 2.281-.748 2.281-1.953v-.023c0-1.114-.987-1.52-1.911-1.812l-.121-.038c-.698-.227-1.3-.422-1.3-.882v-.023c0-.394.352-.683.898-.683a4.05 4.05 0 0 1 1.787.458s.137.088.186-.044c.028-.072.262-.702.287-.77.026-.074-.02-.13-.069-.159-.53-.321-1.259-.541-2.016-.541h-.14c-1.288 0-2.187.779-2.187 1.894v.023c0 1.175.993 1.557 1.92 1.822l.15.046c.678.208 1.262.387 1.262.863v.024c0 .436-.38.76-.992.76-.238 0-.994-.004-1.812-.52-.099-.06-.157-.099-.232-.147-.025-.016-.144-.063-.184.063l-.279.77zm14.061-2.36c0 .681-.127 1.218-.377 1.597-.248.375-.622.559-1.143.559-.522 0-.894-.184-1.138-.559-.247-.379-.372-.916-.372-1.596s.125-1.216.37-1.591c.246-.371.618-.552 1.14-.552.521 0 .895.18 1.143.552.25.375.377.911.377 1.59m1.174-1.262a2.826 2.826 0 0 0-.534-1.02 2.569 2.569 0 0 0-.902-.685c-.359-.168-.782-.253-1.258-.253-.477 0-.901.085-1.26.253a2.564 2.564 0 0 0-.901.686 2.8 2.8 0 0 0-.534 1.02 4.441 4.441 0 0 0-.174 1.262c0 .45.058.875.174 1.262.114.389.294.733.534 1.02.239.287.543.517.902.68.359.164.782.246 1.259.246.476 0 .898-.082 1.258-.246.359-.163.662-.393.902-.68.24-.286.42-.63.534-1.02.115-.388.174-.813.174-1.262 0-.45-.059-.874-.174-1.263m9.645 3.235c-.039-.114-.15-.07-.15-.07a2.66 2.66 0 0 1-.547.155 4.105 4.105 0 0 1-.643.046c-.568 0-1.02-.169-1.344-.503-.324-.334-.506-.875-.504-1.606.002-.664.162-1.164.45-1.546.287-.379.723-.574 1.304-.574.484 0 .854.057 1.24.178 0 0 .094.04.137-.08.104-.287.18-.49.29-.803.03-.09-.046-.127-.074-.138a4.578 4.578 0 0 0-.784-.199 5.977 5.977 0 0 0-.88-.058c-.493 0-.933.084-1.309.252a2.707 2.707 0 0 0-.947.684 2.897 2.897 0 0 0-.57 1.02 4.034 4.034 0 0 0-.192 1.265c0 .974.262 1.762.782 2.337.52.58 1.3.873 2.318.873.602 0 1.219-.122 1.663-.296 0 0 .085-.041.048-.14l-.289-.797zm2.054-2.625c.057-.378.16-.692.322-.937.243-.372.614-.578 1.136-.578.522 0 .866.206 1.114.578.164.246.236.572.264.938h-2.836zm3.954-.83a2.47 2.47 0 0 0-.508-.93c-.256-.277-.507-.47-.755-.577a2.894 2.894 0 0 0-1.14-.23c-.495 0-.946.083-1.312.255a2.61 2.61 0 0 0-.915.698 2.88 2.88 0 0 0-.538 1.033 4.461 4.461 0 0 0-.175 1.268c0 .458.06.886.18 1.269.122.388.315.728.576 1.011.262.284.598.506 1 .662.4.155.886.235 1.444.233 1.148-.003 1.753-.259 2.002-.397.044-.025.085-.068.034-.19l-.261-.728c-.04-.108-.15-.069-.15-.069-.285.106-.688.295-1.631.293-.617 0-1.074-.182-1.36-.467-.294-.29-.439-.718-.463-1.322l3.975.003s.105-.001.116-.104c.004-.042.136-.816-.12-1.711zm-35.792.83c.056-.378.16-.692.32-.937.246-.372.615-.578 1.138-.578.522 0 .867.206 1.115.578.163.246.234.572.263.938h-2.836zm3.953-.83a2.47 2.47 0 0 0-.508-.93c-.256-.277-.506-.47-.755-.577a2.897 2.897 0 0 0-1.138-.23c-.497 0-.947.083-1.313.255a2.61 2.61 0 0 0-.915.698 2.88 2.88 0 0 0-.539 1.033 4.461 4.461 0 0 0-.174 1.268c0 .458.06.886.18 1.269.121.388.315.728.576 1.011.262.284.598.506 1 .662.4.155.886.235 1.443.233 1.149-.003 1.753-.259 2.002-.397.045-.025.086-.068.035-.19l-.261-.728c-.04-.108-.15-.069-.15-.069-.285.106-.688.295-1.632.293-.615 0-1.073-.182-1.36-.467-.293-.29-.438-.718-.462-1.322l3.975.003s.104-.001.115-.104c.004-.042.136-.816-.119-1.711zm-12.546 3.434c-.156-.124-.177-.156-.229-.236-.08-.122-.12-.296-.12-.517 0-.35.116-.601.355-.77-.002 0 .343-.298 1.153-.287.57.007 1.08.092 1.08.092v1.807s-.505.108-1.074.143c-.808.049-1.168-.233-1.165-.232m1.582-2.794a8.605 8.605 0 0 0-.62-.018c-.34 0-.67.042-.98.126a2.57 2.57 0 0 0-.83.384 1.918 1.918 0 0 0-.576.656 1.91 1.91 0 0 0-.213.916c0 .353.06.658.183.908.12.251.295.46.518.622.22.161.494.28.81.35.312.072.665.109 1.053.109.408 0 .813-.035 1.207-.101.39-.067.868-.163 1.001-.195.132-.03.278-.07.278-.07.1-.025.091-.13.091-.13l-.002-3.635c0-.799-.213-1.39-.63-1.756-.418-.366-1.033-.55-1.827-.55-.299 0-.778.04-1.066.098 0 0-.868.168-1.225.448 0 0-.078.049-.036.159l.281.756c.036.098.131.064.131.064s.03-.012.066-.033c.764-.415 1.731-.403 1.731-.403.43 0 .76.087.983.257.217.167.327.417.327.947v.169c-.34-.05-.655-.078-.655-.078m32.064-2.048a.108.108 0 0 0-.06-.144 3.604 3.604 0 0 0-.666-.114c-.5-.03-.777.054-1.025.166-.247.11-.52.291-.671.496l-.001-.485c0-.067-.048-.12-.114-.12h-1.02c-.066 0-.113.053-.113.12v5.93c0 .067.053.12.12.12h1.045a.12.12 0 0 0 .12-.12v-2.962c0-.399.044-.795.132-1.044.086-.247.203-.443.348-.584.145-.142.31-.24.492-.296.184-.056.389-.075.532-.075.209 0 .437.054.437.054.077.008.12-.04.146-.108.067-.181.262-.727.298-.834" fill="#FFF"/><path d="M95.875 67.051a3.157 3.157 0 0 0-.933-.135c-.719 0-1.285.204-1.683.605-.395.398-.665 1.005-.8 1.802l-.048.27h-.902s-.111-.004-.133.116l-.149.826c-.01.079.024.128.13.128h.878l-.892 4.976c-.07.4-.149.73-.238.98-.086.247-.172.431-.277.565-.102.13-.197.226-.364.282a1.497 1.497 0 0 1-.467.066 1.81 1.81 0 0 1-.319-.035c-.095-.018-.144-.04-.215-.069 0 0-.102-.039-.144.064-.032.085-.266.729-.294.809-.028.078.01.14.061.158.117.041.204.068.363.106.222.052.409.055.583.055.366 0 .7-.051.976-.151.278-.101.52-.276.735-.512.23-.256.377-.524.516-.89a7.66 7.66 0 0 0 .35-1.336l.895-5.068h1.309s.11.004.133-.116l.148-.826c.01-.08-.023-.128-.129-.128h-1.27c.005-.029.063-.476.209-.897.062-.18.18-.324.279-.424a.833.833 0 0 1 .333-.208c.126-.04.269-.06.426-.06.12 0 .237.014.327.032.123.026.171.04.203.05.13.04.146.001.173-.061l.303-.835c.031-.09-.044-.128-.073-.139m-17.76 8.599c0 .066-.047.12-.114.12h-1.054c-.066 0-.114-.054-.114-.12v-8.486c0-.066.048-.12.114-.12h1.054c.067 0 .114.054.114.12v8.485z" fill="#FFF"/><rect width="80" height="80" rx="8.5" stroke="#CFD9E2" stroke-width=".735" fill="#FFF" stroke-linecap="square" filter="url(#f)" stroke-opacity=".304" transform="translate(54 201)"/><path fill="#59473C" d="M105.615 233.819v.001h.001v-.001M78.958 250.32h-.001m-1.009-1.572l-.001-.003.001.003m-.101-.256v-.001.001m1.291 2.018l.003.001-.003-.003-.003-.001.003.002"/><path d="M112.844 248.48a2.177 2.177 0 0 0-.04-.19.923.923 0 0 0-.038-.116 1.76 1.76 0 0 0-.102-.256v-.001a1.48 1.48 0 0 0-.81-.732l-.006-.003a1.67 1.67 0 0 0-.476-.098c-.043-.003-.082-.002-.122-.001a2.323 2.323 0 0 0-.396-1.6l.03-.036a5.05 5.05 0 0 0 .428-.599l.022-.038a1.704 1.704 0 0 0 .2-.851h.002v-.007l-.001-.015v-.033h-.003l-.002-.036-.001-.022-.007-.067a2.285 2.285 0 0 0-.341-.99 2.041 2.041 0 0 0-.98-.807h.002l-.044-.018a7.596 7.596 0 0 0-1.542-1.31 10.97 10.97 0 0 0-.676-.403c-.194-.107-.356-.19-.448-.24h.001a4.117 4.117 0 0 0-.434-.21 4.644 4.644 0 0 1-.372-.18.687.687 0 0 1-.101-.067l-.007-.006c-.001-.002-.009-.013-.022-.053a1.465 1.465 0 0 1-.05-.214 7.509 7.509 0 0 1-.073-.714c-.035-.508-.065-1.21-.123-2.16a7.819 7.819 0 0 0-.095-.85 5.615 5.615 0 0 0-.311-1.143v-.001a4.123 4.123 0 0 0-.097-.227l-.001-.002-.06-.123v.002a3.824 3.824 0 0 0-.077-.147l-.001-.002-.053-.093-.001-.001a3.564 3.564 0 0 0-.148-.231l-.016-.022-.029-.039-.02-.025a3.822 3.822 0 0 0-.324-.357 6.626 6.626 0 0 0-.387-.868 5.216 5.216 0 0 0-.657-.963 3.85 3.85 0 0 0-.323-.323l.03-.04a15.908 15.908 0 0 0 1.73-3.007c1.302-3.048.53-4.72-.347-5.586l-.024-.024-.026-.022c-.83-.71-1.882-1.07-3.127-1.07-2.58 0-5.297 1.582-6.006 2.024l-1.556-1.324-.007-.005a2.644 2.644 0 0 0-.444-.303 2.838 2.838 0 0 0-.496-.21 3.66 3.66 0 0 0-1.105-.16c-.778.002-1.627.198-2.533.55-1.357.528-2.844 1.413-4.368 2.589-1.522 1.177-3.078 2.646-4.553 4.348-1.804 2.08-3.24 4.222-4.233 6.21a17.49 17.49 0 0 0-1.144 2.842c-.263.895-.404 1.726-.405 2.48 0 .548.075 1.057.244 1.513.074.2.168.39.28.565.143.227.318.432.525.607l.005.004 1.8 1.45-.007.018-.039.096a6.222 6.222 0 0 0-.09.242 5.757 5.757 0 0 0-.148.496 5.573 5.573 0 0 0-.084.412l-.008.044-.009.057a6.097 6.097 0 0 0-.02.162l-.012.099-.006.07-.007.102c-.002.03-.005.06-.006.091a5.05 5.05 0 0 0-.006.205l-.002.06v.006l.001.018.003.135a5.446 5.446 0 0 0 .017.305l.005.073.018.148.011.09.007.052v.007l.001.004.016.094c.005.035.013.07.02.104l.013.076a4.448 4.448 0 0 0 .062.272l.001.004a3.253 3.253 0 0 0 .043.151c.008.032.019.069.033.114l.015.046.021.065v.002l.002.003.01.027c.009.03.021.067.04.118l.013.034.029.074.012.032c.005.01.008.021.014.036l.012.03.01.025.01.023.013.03.013.03c.01.025.022.048.033.072l.053.115-.004-.008.004.01.015.03.046.088v.002c.014.027.034.067.062.118l.001.002v-.001l.002.004-.002-.002.013.02c.017.032.03.057.042.075l.013.024.003.004.027.047c.01.018.022.039.037.062l-.002-.002.015.023a4.06 4.06 0 0 0 .064.1l-.001-.001.002.003v.001-.001c.016.026.037.059.065.1l.002.004.002.002.012.017.033.048.038.053.002.003.065.089.002.003.002.002.011.015.034.044.048.06.004.005v.002l.064.079.003.003.008.01.041.049.055.062-.003-.003.073.082.002.003.002.002-.003-.004.003.004.003.003.047.05.058.061-.001-.001.064.066.006.005a2.953 2.953 0 0 0 .121.118l.007.007.053.048.01.01.003.002.005.005.092.08.031.029.002.001.002.002.054.046.007.006h.002l.004.004h-.001c.035.029.07.056.104.082l.043.034.002.002.051.04.005.003.016.013.126.09.01.008.003.002h.001l.002.002.053.037.004.002a6.7 6.7 0 0 0 .162.107l.003.002.03.019.022.013h-.001l.03.018.134.079.012.007.005.003.036.02.008.005.006.003.038.02.113.06.032.017.004.002.04.02h.001l.02.01c.038.019.08.037.12.056l.062.03.035.015.02.008.012.006.175.072.005.003.033.012.003.002c.073.028.144.053.21.076l.011.004.037.012.105.032.05.016.061.019.017.005h.005l.008.003c.034.01.068.017.101.026l.017.004.113.03.01.002.027.006.053.01.017.004c.054.012.107.024.162.034l.013.002.004.001.002.001c.084.015.167.028.25.04h.003l.014.001h-.005c.074.01.145.017.216.024h.001l.026.003.028.003c.068.006.137.009.205.012l.02.003.049.001c.041.002.083.002.124.002l.024.045v.003c.15.286.308.569.474.85 2.568 4.982 8.36 8.378 14.48 8.378 6.119 0 12.054-4.742 14.002-10.405.087-.218.165-.431.234-.637.227-.296.394-.595.492-.901.117-.362.126-.727.074-1.02m-2.754 9.363a.376.376 0 0 1-.474-.046.384.384 0 0 1-.114-.29.43.43 0 0 1 .098-.285.332.332 0 0 1 .27-.118c.073 0 .136.015.19.045.086.048.14.131.161.251l-.175-.002c-.01-.056-.033-.093-.067-.112a.173.173 0 0 0-.094-.027.154.154 0 0 0-.127.063c-.033.041-.05.105-.05.19 0 .083.019.144.055.182.037.038.08.057.131.057.047 0 .082-.013.106-.038a.18.18 0 0 0 .046-.095h.17c-.018.107-.06.182-.126.225zm-.623-.73a.54.54 0 0 0-.164.392c0 .157.055.29.167.4.11.11.244.164.4.164.156 0 .29-.055.4-.165a.545.545 0 0 0 .165-.399.54.54 0 0 0-.164-.393.542.542 0 0 0-.401-.168.547.547 0 0 0-.403.168zm.884.878a.671.671 0 0 1-.481.192.667.667 0 0 1-.488-.196.65.65 0 0 1-.199-.482.64.64 0 0 1 .215-.493.677.677 0 0 1 .472-.184c.19 0 .351.066.485.198a.648.648 0 0 1 .201.48.648.648 0 0 1-.205.485z" fill="#59473C"/><path d="M111.89 248.709s.002-.247-.155-.448l-.003-.006a.45.45 0 0 0-.03-.033l-.01-.012a.623.623 0 0 0-.18-.127.927.927 0 0 0-.357-.076 1.516 1.516 0 0 0-.262.02c-.038.007-.076.012-.117.021l-.019.003.01.025a5.897 5.897 0 0 1 .114.296s-.003.016-.012.046l-.004.016a2.792 2.792 0 0 1-.38.75c-.043.061-.09.127-.141.194-.704.923-2.305 2.31-5.9 3.417-1.226.327-2.376.478-3.374.478-1.476 0-2.623-.324-3.207-.878a2.498 2.498 0 0 1-.239-.261c-.011-.015-.02-.03-.032-.043a2.352 2.352 0 0 1-.457-1.157c-.055-.488.04-.973.256-1.363.175-.316.428-.57.744-.712a1.41 1.41 0 0 1 .506-.123c.038-.002.087-.003.148-.003l.504.004h.07c.702 0 1.813-.032 3.132-.276 2.4-.442 5.49-1.583 8.055-4.51l.006-.01v-.005c-.017-.217-.096-.602-.41-.87a1.108 1.108 0 0 0-.313-.19 2.32 2.32 0 0 1-.282-.133l-.007-.009-.072-.082c-.89-1.028-2.005-1.552-2.455-1.8-.212-.117-.343-.166-.343-.166-.96-.427-1.113-.588-1.214-2.055-.036-.527-.065-1.224-.123-2.165a8.64 8.64 0 0 0-.03-.352l-.01-.08a6.758 6.758 0 0 0-.043-.313l-.005-.028-.006-.031a7.809 7.809 0 0 0-.046-.229l-.022-.096a4.059 4.059 0 0 0-.061-.229c-.011-.038-.024-.074-.035-.11a4.31 4.31 0 0 0-.084-.234c-.017-.046-.037-.088-.056-.131l-.02-.047-.02-.042-.007-.014-.02-.041-.002-.003a5.83 5.83 0 0 0-.05-.096l-.006-.01-.017-.03-.02-.036-.004-.007a2.443 2.443 0 0 0-.108-.168l-.028-.038a3.161 3.161 0 0 0-.123-.144l-.018-.02-.02-.02a2.25 2.25 0 0 0-.09-.09l-.04-.04a2.578 2.578 0 0 0-.116-.102l-.002-.005-.002-.007-.003-.01-.004-.013-.004-.014-.008-.022-.004-.013-.01-.03-.003-.012a5.259 5.259 0 0 0-.081-.222l-.003-.007-.027-.067-.003-.009a6.17 6.17 0 0 0-.031-.074l-.001-.002a5.775 5.775 0 0 0-.085-.19l-.033-.066a3.903 3.903 0 0 0-.07-.14c-.014-.028-.03-.055-.045-.083a4.258 4.258 0 0 0-.076-.135c-.017-.03-.036-.059-.054-.089-.028-.045-.056-.09-.086-.133l-.061-.09c-.032-.046-.066-.09-.1-.134l-.067-.085a3.628 3.628 0 0 0-.121-.14l-.063-.068c-.019-.02-.04-.037-.06-.056-.047-.046-.094-.093-.144-.136l-.006-.004-.028-.021a2.287 2.287 0 0 0-.205-.152l-.013-.008a2.302 2.302 0 0 0-.096-.059l-.004-.002-.012-.006a1.76 1.76 0 0 0-.086-.046l-.015-.008.006.004a.882.882 0 0 0-.157-.06 4.981 4.981 0 0 0-.654-.131l-.043-.005a6.714 6.714 0 0 0-.853-.054l-.11.003-.044.001c-.174.005-.35.015-.524.038l-.01.002c-.226.03-.449.076-.659.144.04-.089.165-.197.293-.29.159-.117.321-.209.321-.209a3.518 3.518 0 0 0-.293.074l-.095.027-.061.02-.018.005a7.866 7.866 0 0 0-1.352.618l-.017.01-.08.02v-.001a1.55 1.55 0 0 1 .736-.808l.033-.017a1.688 1.688 0 0 1 .163-.069c-.023.003-.045.01-.068.014l-.06.011-.085.017-.052.01a3.973 3.973 0 0 0-1.413.658 5.12 5.12 0 0 0-.705.61l-.174.06c-.592.202-1.265.452-1.967.763a17.079 17.079 0 0 0-1.85.95c-1.058.632-2.08 1.423-2.897 2.416l-.09.106c-.07.09-.138.182-.205.274-.028.038-.057.074-.084.112-.033.047-.064.098-.097.146-.147.22-.288.447-.415.685a7.393 7.393 0 0 0-.261.546l-.01.022a7.406 7.406 0 0 0-.53 1.913 8.107 8.107 0 0 0-.024.184l-.004.032c-.028.25-.043.507-.049.77 0 .053-.003.104-.003.156a8.975 8.975 0 0 0 .033.775l.003.028.016.186c.007.071.017.144.026.216a8.225 8.225 0 0 0 .069.48l.004.022a11.519 11.519 0 0 0 .126.622l.01.045.025.103c.039.163.083.328.13.494l.039.14c.043.145.088.292.137.44 0 0-.052-.192-.07-.481a3.16 3.16 0 0 1 .042-.759c.009-.047.02-.095.031-.143l.018-.063c.025-.09.054-.18.092-.27l.058.176.006.02.003.027a25.025 25.025 0 0 0 .053.428c.015.113.033.235.053.363.085.539.215 1.187.403 1.729 0 0-.105-1.015.054-1.15 0 0 .54 1.835.91 2.508a.956.956 0 0 0 .135.197l-.03-.184-.172-1.037-.008-.108a18.353 18.353 0 0 0 1.168 1.575c-.465.517-.866 1.217-1.116 2.025a6.195 6.195 0 0 0-.158.629l-.013.074a6.06 6.06 0 0 0-.062.418l-.009.079c-.007.08-.014.16-.019.242v.007a5.86 5.86 0 0 0-.009.246v.08a5.333 5.333 0 0 0 .015.445l.006.08c.007.087.016.173.028.26l.001.011a5.825 5.825 0 0 0 .068.402l.005.027.003.017c.017.082.036.164.057.246l.021.078.048.17.03.093a6.319 6.319 0 0 0 .143.404l.041.1a5.428 5.428 0 0 0 .186.404l.046.093c.03.057.062.114.094.171l.042.076c.095.165.199.329.312.492l.053.072c.04.058.082.115.125.171l.069.09c.04.05.08.101.123.152l.08.095a8 8 0 0 0 .351.385l.092.095.15.145.094.089c.057.053.117.105.176.157.028.025.055.05.084.074.089.076.18.152.275.227a2.082 2.082 0 0 1-.14-.177l-.002-.003a2.162 2.162 0 0 1-.048-.069l-.005-.007a4.93 4.93 0 0 1-.054-.083l-.003-.005a2.795 2.795 0 0 1-.434-1.226c.056.058.112.113.169.169.07.106.16.238.264.385a14.664 14.664 0 0 0 .62.82c.223.276.466.55.71.781-.002-.002-.311-.477-.435-.799a.545.545 0 0 1-.05-.221l.067.053.067.053.167.17.033.033.1.101.002.002.128.128c.4.395.931.899 1.298 1.166.122.09.226.153.3.176l-.578-.778c1.179.728 5.734 1.29 9.93-.476a12.897 12.897 0 0 0 2.368-1.301l.042-.03c.2-.142.396-.292.59-.449l.005-.003a11.607 11.607 0 0 0 1.126-1.038h.001l.001-.001.04-.043a10.322 10.322 0 0 0 1.274-1.743l.015-.024.137-.243.013-.024c.015-.027.027-.054.041-.08.062-.116.123-.232.179-.346l.04-.083c.03-.06.057-.12.085-.18l.062-.14.066-.15a14 14 0 0 0 .11-.27l.04-.105.077-.205c.01-.032.022-.063.033-.094l.01-.03.086-.252.005-.018c.124-.146.217-.282.29-.41l.03-.054c.16-.3.193-.553.169-.772m-26.383.085a1.94 1.94 0 0 0-.018-.057l.004-.002a9.738 9.738 0 0 1-.224-.836l-.014-.06c-.047.021-.094.091-.138.184a1.913 1.913 0 0 0-.048.113c-.112.29-.197.685-.197.685a11.43 11.43 0 0 1-.01-.394v-.047c0-.135.002-.273.006-.41l.001-.05c.004-.153.01-.307.018-.455 0-.02.002-.038.003-.057v-.01l.003-.052.004-.076a27.232 27.232 0 0 1 .044-.618l.003-.027c0-.014.002-.027.003-.04l.003-.039v-.004l.006-.065v-.006l.006-.057.008-.089v-.008l.007-.066.008-.084v-.001l.005-.042v-.002l.004-.037.008-.071.002-.018v-.006l.003-.02.001-.014v-.002l-.001.002-.026.03c-.024.027-.048.052-.07.08l-.023.033a1.421 1.421 0 0 0-.07.111l-.012.02c-.026.048-.05.099-.074.15l-.003.007-.009.023-.015.037c-.012.032-.026.063-.037.095v.002l-.002.003-.003.012-.004.012a3.793 3.793 0 0 0-.17.784l-.001.003-.002.018v-.02c-.004-.041-.004-.081-.006-.121-.004-.085-.01-.17-.01-.255-.002-.07 0-.14.002-.211l.001-.067.002-.097.006-.09v-.003l.002-.033.001-.01.007-.11.003-.042.002-.026v-.004l.003-.036.005-.044c.005-.054.012-.107.018-.16v-.01l.014-.118v-.005l.002-.011c.011-.08.024-.16.037-.24l.003-.021.004-.022.007-.045c.022-.13.047-.258.074-.384l.004-.016c.023-.106.048-.212.074-.316l.003-.012.037-.135.002-.007.055-.201h.001v-.002l.003-.008.036-.115v-.002l.003-.007.021-.07.035-.111.01-.033v-.001l.214-.523.027-.065.004-.011.01-.027.07-.173a72.751 72.751 0 0 1 .247-.603c.019-.043.03-.072.035-.08l.001-.005h-.001l-.003-.002a7.108 7.108 0 0 0-1.64-.561l-.105-.018a4.937 4.937 0 0 0-.343-.05h-.006a4.793 4.793 0 0 0-.241-.023c-.064-.004-.127-.008-.192-.009l-.093.002-.092.002c-.086.003-.173.01-.259.019-.042.004-.083.007-.125.013a4.767 4.767 0 0 0-.544.114l-.032.009a4.649 4.649 0 0 0-1.19.514l-.077.049-.095.061c-.277.187-.53.402-.758.64l-.009.01a4.605 4.605 0 0 0-1.063 1.81l-.01.035a4.52 4.52 0 0 0-.187 1.502l.002.032a4.498 4.498 0 0 0 .045.451l.007.04c.01.064.021.128.034.192l.008.033.01.044c.01.05.021.1.034.15l.003.01v.004l.022.074c.012.044.024.089.038.133l.03.094.043.122.038.097.009.023.013.034.01.026.013.03c.014.034.03.067.045.1l.048.105.05.1.015.028.037.071c.018.034.038.067.058.101l.053.092.032.05.033.05.055.086c.023.034.048.068.072.101l.056.079.08.1c.018.025.037.048.056.072l.087.1.057.066.094.099.057.058a3.701 3.701 0 0 0 .158.151 3.976 3.976 0 0 0 .284.238l.051.04.128.092.048.034.137.09.046.028c.048.03.096.059.145.087l.043.023c.05.028.102.055.153.082l.04.019c.053.027.107.052.161.077l.035.015c.057.026.114.048.171.071l.03.012c.06.023.12.045.18.065l.026.009c.062.02.124.04.187.058l.023.006c.064.018.13.035.195.05l.017.004c.068.016.135.03.203.043l.014.003.1.015.109.018h.01c.071.01.143.018.216.024l.006.001h.001c.073.007.147.01.22.013l.004.001c.226.008.456 0 .688-.026.055-.006.11-.012.166-.02a4.253 4.253 0 0 0 .536-.115 5.813 5.813 0 0 0 .688-.24c.4-.17.747-.374.946-.562 0 0-.223-.613-.426-1.239l-.066-.205" fill="#856249"/><path fill="#856249" d="M102.513 231.327l-.001-.001h.001"/><path d="M111.89 248.709s.002-.247-.155-.448l-.003-.006a.45.45 0 0 0-.03-.033l-.01-.012a.623.623 0 0 0-.18-.127.927.927 0 0 0-.357-.076 1.516 1.516 0 0 0-.262.02c-.038.007-.076.012-.117.021l-.019.003.01.025a5.897 5.897 0 0 1 .114.296s-.003.016-.012.046l-.004.016a2.792 2.792 0 0 1-.38.75c-.043.061-.09.127-.141.194-.704.923-2.305 2.31-5.9 3.417-1.226.327-2.376.478-3.374.478-1.476 0-2.623-.324-3.207-.878a2.498 2.498 0 0 1-.239-.261c-.011-.015-.02-.03-.032-.043a2.352 2.352 0 0 1-.457-1.157c-.055-.488.04-.973.256-1.363.175-.316.428-.57.744-.712a1.41 1.41 0 0 1 .506-.123c.038-.002.087-.003.148-.003l.504.004h.07c.702 0 1.813-.032 3.132-.276 2.4-.442 5.49-1.583 8.055-4.51l.006-.01v-.005c-.017-.217-.096-.602-.41-.87a1.108 1.108 0 0 0-.313-.19 2.32 2.32 0 0 1-.282-.133l-.007-.009-.072-.082c-.89-1.028-2.005-1.552-2.455-1.8-.212-.117-.343-.166-.343-.166-.96-.427-1.113-.588-1.214-2.055-.036-.527-.065-1.224-.123-2.165a8.64 8.64 0 0 0-.03-.352l-.01-.08a6.758 6.758 0 0 0-.043-.313l-.005-.028-.006-.031a7.809 7.809 0 0 0-.046-.229l-.022-.096a4.059 4.059 0 0 0-.061-.229c-.011-.038-.024-.074-.035-.11a4.31 4.31 0 0 0-.084-.234c-.017-.046-.037-.088-.056-.131l-.02-.047-.02-.042-.007-.014-.02-.041-.002-.003a5.83 5.83 0 0 0-.05-.096l-.006-.01-.017-.03-.02-.036-.004-.007a2.443 2.443 0 0 0-.108-.168l-.028-.038a3.161 3.161 0 0 0-.123-.144l-.018-.02-.02-.02a2.25 2.25 0 0 0-.09-.09l-.04-.04a2.49 2.49 0 0 0-.26-.21 1.819 1.819 0 0 0-.156-.063l-.05-.015a1.387 1.387 0 0 0-.102-.03l-.058-.011a1.528 1.528 0 0 0-.15-.02 1.305 1.305 0 0 0-.227 0l-.056.007a1.313 1.313 0 0 0-.085.015l-.052.01-.038.011-.051.015a1.419 1.419 0 0 0-.147.053l-.03.011a2.153 2.153 0 0 0-.262.137l-.028.017c-.034.02-.067.042-.1.064l-.038.027-.09.063-.04.03a3.36 3.36 0 0 0-.088.068l-.039.032a4.85 4.85 0 0 0-.091.074l-.034.028a7.093 7.093 0 0 0-.103.088l-.02.017-.116.102-.002.001-.006.005-.218.193a9.96 9.96 0 0 1-.187.164l-.03.026a9.676 9.676 0 0 1-.193.161l-.032.027c-.065.052-.13.103-.198.152l-.035.025a4.675 4.675 0 0 1-.204.14l-.035.021a3.28 3.28 0 0 1-.216.125l-.03.015a2.707 2.707 0 0 1-.233.106l-.02.008a2.242 2.242 0 0 1-.257.084 3.54 3.54 0 0 1-.446.082 4.977 4.977 0 0 1-.997.025l-.09-.005a15.18 15.18 0 0 1-.667-.063l-.283-.031a34.614 34.614 0 0 0-.459-.05l-.09-.009h.001l-.065-.005-.102-.01-.097-.006-.017-.002h-.011l-.09-.007a8.018 8.018 0 0 0-.208-.01c-.02-.002-.041-.002-.062-.002a5.505 5.505 0 0 0-.154-.004h-.084a5.325 5.325 0 0 0-.223.005l-.04.002a4.503 4.503 0 0 0-.18.01l-.14.014-.04.004-.04.004a3.997 3.997 0 0 0-.172.025l-.047.007a3.776 3.776 0 0 0-.219.044l-.057.014a5.139 5.139 0 0 0-.142.037l-.021.005-.078.024a4.299 4.299 0 0 0-.45.167 3.284 3.284 0 0 0-.154.072l-.07.034a3.847 3.847 0 0 0-.221.122 5.157 5.157 0 0 0-1.384 1.57 5.441 5.441 0 0 0-.664 1.886l-.005.038a5.164 5.164 0 0 0-.046 1.055 4.858 4.858 0 0 0 .088.663c.01.052.018.103.03.155.034.142.073.284.12.423.017.052.038.1.057.15.019.047.036.096.055.142.149.353.338.664.551.942.811 1.057 1.995 1.603 2.837 1.87.326.098.664.178 1.013.243l-.037.03a9.053 9.053 0 0 0-.582.251 8.68 8.68 0 0 0-.52.268 6.685 6.685 0 0 0-1.504 1.125 4.337 4.337 0 0 0-.44.523l-.029.04-.037.055a3.56 3.56 0 0 0-.129.202 3.618 3.618 0 0 0-.208.412 3.297 3.297 0 0 0-.187 1.974v-.013l.003-.03v-.006l.005-.04v-.01l.008-.06.002-.015.012-.078.016-.087.004-.02.021-.097.004-.016.026-.1.004-.015.034-.114.008-.024.042-.12.002-.005a3.01 3.01 0 0 1 .08-.187l.033-.072.01-.02a2.437 2.437 0 0 1 .159-.273l.026-.038a2.12 2.12 0 0 1 .068-.093l.03-.037c.032-.04.065-.08.101-.12l.004-.003s-.502 1.646-.043 2.845l-.002-.01v-.008l-.004-.025v-.006a1.998 1.998 0 0 1-.006-.045v-.007a1.868 1.868 0 0 1-.006-.062v-.007l-.005-.077v-.007a2.924 2.924 0 0 1-.003-.089v-.008a2.497 2.497 0 0 1 .004-.222v-.009l.002-.02c.003-.045.008-.09.014-.136v-.01c.007-.045.014-.09.023-.136l.008-.043.006-.03a2.12 2.12 0 0 1 .03-.115l.001-.006a1.71 1.71 0 0 1 .057-.158c.005-.014.01-.028.017-.041.022-.052.047-.103.076-.152v-.002h.001a7.376 7.376 0 0 0 .114 1.063c.01.05.019.099.03.148.02.316.065.641.14.974a6.96 6.96 0 0 0 .654 1.73s-.31-.693-.085-1.451c.037.062.075.124.115.186.053.21.135.509.24.835.131.549.612 2.185 1.909 3.217 0 0-.505-.502-.528-1.234.057.09.112.17.165.238.242.34.718.967 1.203 1.384 0 0-.429-.619-.366-.771 0 0 1.302 1.245 1.678 1.336l-.57-.714-.013-.021c1.786.972 4.09 1.13 6.774.026.461-.19.934-.418 1.417-.685.295-.172.586-.356.871-.556l.042-.03c.2-.142.396-.292.59-.449l.005-.003a11.607 11.607 0 0 0 1.126-1.038h.001l.001-.001.04-.043a10.322 10.322 0 0 0 1.274-1.743l.015-.024.137-.243.013-.024c.015-.027.027-.054.041-.08.062-.116.123-.232.179-.346l.04-.083c.03-.06.057-.12.085-.18l.062-.14.066-.15a14 14 0 0 0 .11-.27l.04-.105.077-.205c.01-.032.022-.063.033-.094l.01-.03.086-.252.005-.018c.124-.146.217-.282.29-.41l.03-.054c.16-.3.193-.553.169-.772m-26.635-.869c-.047.02-.094.09-.138.183a1.913 1.913 0 0 0-.048.113c-.112.29-.197.685-.197.685a11.43 11.43 0 0 1-.01-.394v-.047c0-.135.002-.273.006-.41l.001-.05c.004-.153.01-.307.018-.455 0-.02.002-.038.003-.057v-.01l.003-.052.004-.076a27.232 27.232 0 0 1 .044-.618l.003-.027c0-.014.002-.027.003-.04l.003-.039v-.004l.006-.065v-.006l.006-.057.008-.089v-.008l.007-.066.008-.084v-.001l.005-.042v-.002l.004-.037.008-.071.002-.018v-.006l.003-.02.001-.014v-.002l-.001.002-.026.03c-.024.027-.048.052-.07.08l-.023.033a1.421 1.421 0 0 0-.07.111l-.012.02c-.026.048-.05.099-.074.15l-.003.007-.009.023-.015.037c-.012.032-.026.063-.037.095v.002l-.002.003-.003.012-.004.012a3.793 3.793 0 0 0-.17.784l-.001.003-.002.018v-.02c-.004-.041-.004-.081-.006-.121-.004-.085-.01-.17-.01-.255-.002-.07 0-.14.002-.211l.001-.067.002-.097.006-.09v-.003l.002-.033.001-.01.007-.11.003-.042.002-.026v-.004l.003-.036.005-.044c.005-.054.012-.107.018-.16v-.01l.014-.118v-.005l.002-.011c.011-.08.024-.16.037-.24l.003-.021.004-.022.007-.045c.022-.13.047-.258.074-.384l.004-.016c.023-.106.048-.212.074-.316l.003-.012.037-.135.002-.007.055-.201h.001v-.002l.003-.008.036-.115v-.002l.003-.007.021-.07.035-.111.01-.033-.074-.025-.013-.005-.027-.01a2.665 2.665 0 0 0-.496-.112L84.31 244a2.644 2.644 0 0 0-.929.055c-.024.005-.048.013-.073.019-.038.01-.076.023-.114.035l-.046.014a2.419 2.419 0 0 0-.23.091l-.07.03a2.74 2.74 0 0 0-.195.106l-.073.047-.085.057-.03.02-.09.069a2.77 2.77 0 0 0-.177.152c-.02.017-.037.036-.056.055a2.73 2.73 0 0 0-.322.39l-.017.027c-.02.028-.036.058-.053.086l-.002.005-.003.004-.035.058-.004.008-.005.008a2.562 2.562 0 0 0-.173.39l-.02.059c-.02.066-.04.132-.055.2l-.02.08a2.49 2.49 0 0 0-.033.21l-.003.026-.003.033v.003c-.005.051-.01.102-.011.153v.166l.001.063a2.524 2.524 0 0 0 .06.427l.001.004.006.028c.008.034.019.067.028.1a2.529 2.529 0 0 0 .552 1.01 2.648 2.648 0 0 0 2.367.87c.065-.01.127-.025.19-.04.035-.007.072-.012.108-.021.09-.024.177-.053.262-.086l.019-.006c.035-.014.068-.032.102-.047.106-.047.209-.1.307-.16l.021-.013c.028-.016.056-.031.082-.049l.004-.002a9.738 9.738 0 0 1-.224-.836l-.014-.06" fill="#FCE9C8"/><path d="M97.573 237.244a1.593 1.593 0 0 0-.388-.093 2.21 2.21 0 0 0-.354-.012 3.294 3.294 0 0 0-.799.133 3.597 3.597 0 0 0-.223.09c-.562.246-.931.596-1.172.978a2.688 2.688 0 0 0-.363.95c-.006.027-.01.055-.014.082a3.786 3.786 0 0 0-.026.915c.024.253.065.412.065.412a7.19 7.19 0 0 1 .24-.649c.215-.502.462-.915.723-1.255a4.36 4.36 0 0 1 1.499-1.266c.473-.238.812-.285.812-.285m6.882-1.679l-.023-.023a1.102 1.102 0 0 0-.266-.192c-.241-.124-.557-.165-.971-.027 0 0-.49.18-.744.541 0 0 .832-.478 1.845.06a3.124 3.124 0 0 1 .574.41s-.088-.395-.362-.711a1.122 1.122 0 0 0-.053-.058m-8.173 5.775l.093-.088.043-.036c.031-.026.061-.052.095-.078l.059-.042.096-.07.072-.043c.034-.021.067-.042.102-.062.027-.016.057-.03.085-.044l.107-.055.098-.041c.038-.016.074-.032.113-.047.036-.013.074-.024.112-.037.035-.012.07-.025.107-.035l.022-.007a2.57 2.57 0 0 1 .155-.034l.048-.008c.034-.006.069-.012.103-.016l.054-.006a2.728 2.728 0 0 1 .235-.015l.034-.001h.013c.065 0 .128.004.19.01l.033.002c.06.006.12.014.176.024l.027.005c.058.011.114.024.167.038l.015.004c.054.015.106.031.156.049l.004.001h.001c.059.022.114.045.165.068l.003.001c.051.024.1.048.143.073-.08-.292-.325-.916-1.002-1.068h-.002a1.463 1.463 0 0 0-.4-.032h-.001c-.1.005-.206.019-.32.043-1.28.266-1.346 1.33-1.332 1.686a2.57 2.57 0 0 1 .103-.112l.028-.026" fill="#E1B27E"/><path d="M110.809 248.178a2.002 2.002 0 0 0-.041-.102 2.577 2.577 0 0 0-.344-.56 1.503 1.503 0 0 0-.243-.247 2.584 2.584 0 0 0 .034-.436 2.31 2.31 0 0 0-.445-1.354 8.732 8.732 0 0 1-.25.22c-1.59 1.374-3.45 2.358-5.526 2.938-1.43.399-2.962.608-4.581.612l.028.005s-.945.247-1.09 1.19l.017.007-.003.62c.132.823.58 1.293 1.05 1.512a7.122 7.122 0 0 0 1.655.178c1.074 0 2.283-.183 3.497-.53h.006l.007-.003c1.62-.42 3.836-1.573 5.357-2.898.347-.301.657-.612.916-.925l.01-.012.018-.021a6.211 6.211 0 0 0-.072-.194" fill="#FFF"/><path fill="#EFCFA5" d="M97.464 240.662c-.038.01-.072.023-.107.035.035-.012.07-.024.107-.035l.022-.007-.022.006"/><path d="M95.985 241.977c-.035.015-.063.019-.079.005-.056-.025.023-.244.245-.503-.014-.355.052-1.42 1.332-1.686.114-.024.22-.038.32-.043h.001l.085-.002c.114 0 .219.012.315.033h.002c.677.153.923.777 1.002 1.07.22.124.33.25.295.277-.01.027-.046.036-.099.036-.054.034-.172.052-.334.07-.326.033-.833.063-1.389.208l-.115.03c-.83.216-1.445.563-1.58.505zm-.723-3.182c-.261.34-.508.753-.722 1.255a7.19 7.19 0 0 0-.24.65s-.042-.16-.066-.413a3.786 3.786 0 0 1 .026-.915c.004-.027.008-.055.014-.082a2.68 2.68 0 0 1 .363-.95c.24-.382.61-.732 1.172-.979.072-.031.146-.061.223-.089 0 0 .364-.117.799-.133a2.353 2.353 0 0 1 .354.012c.132.016.264.045.388.093 0 0-.34.047-.812.285a4.36 4.36 0 0 0-1.5 1.266zm7.933-3.472c.414-.138.73-.097.971.027.102.052.19.118.266.192l.023.023a.729.729 0 0 1 .053.058c.274.316.362.712.362.712a3.124 3.124 0 0 0-.293-.236 2.598 2.598 0 0 0-.28-.174c-1.014-.539-1.846-.06-1.846-.06.254-.362.744-.542.744-.542zm-5.456 8.776l.161-.11a52.218 52.218 0 0 1 .235-.152l.08-.05.166-.101.089-.054.167-.097.1-.058.167-.092.114-.061c.054-.03.109-.058.165-.087.041-.023.084-.044.127-.066.054-.027.107-.055.163-.082l.141-.069c.054-.025.107-.052.161-.076a18.01 18.01 0 0 1 .49-.222l.15-.065.196-.081.097-.04c.182-.689.76-2.412 2.08-2.754.143-.039.272-.062.395-.078l.093-.014a2.98 2.98 0 0 1-.07-.29c-.131-.696.013-1.306.322-1.362.239-.05.475.275.523.392.118.202.217.467.273.766.052.274.058.532.031.75.03.025.057.053.085.08.355.338.473.854.507 1.226.118-.027.239-.052.36-.078l.093-.02.02-.004.052-.01c.15-.032.303-.062.457-.092l.007-.002c.35-.067.71-.132 1.081-.194-.212-.117-.343-.166-.343-.166-.96-.427-1.113-.588-1.214-2.055-.036-.527-.065-1.224-.123-2.165a8.64 8.64 0 0 0-.03-.352l-.01-.08a6.758 6.758 0 0 0-.043-.313l-.005-.028-.006-.031a7.809 7.809 0 0 0-.046-.229l-.022-.096a4.059 4.059 0 0 0-.061-.229c-.011-.038-.024-.074-.035-.11a4.31 4.31 0 0 0-.084-.234 2.272 2.272 0 0 0-.517-.44l-.038-.02-.008-.005-.028-.016-.01-.006a1.48 1.48 0 0 0-.179-.09 2.358 2.358 0 0 0-.91-.196 2.945 2.945 0 0 0-.799.091 4.05 4.05 0 0 0-.679.231l-.218.193a9.96 9.96 0 0 1-.187.164l-.03.026a9.676 9.676 0 0 1-.193.161l-.032.027c-.065.052-.13.103-.198.152l-.035.025a4.675 4.675 0 0 1-.204.14l-.035.021a3.28 3.28 0 0 1-.216.125l-.03.015a2.707 2.707 0 0 1-.233.106l-.02.008a2.242 2.242 0 0 1-.257.084 3.54 3.54 0 0 1-.446.082 4.977 4.977 0 0 1-.997.025l-.09-.005a15.18 15.18 0 0 1-.667-.063l-.283-.031a34.614 34.614 0 0 0-.459-.05l-.09-.009c-.125.022-.249.05-.373.081l-.028.007a5.683 5.683 0 0 0-1.065.392l-.057.027a5.905 5.905 0 0 0-.377.206 6.307 6.307 0 0 0-1.873 1.699 6.349 6.349 0 0 0-.58.946l-.026.055a6.157 6.157 0 0 0-.231.536c-.024.065-.049.13-.07.194l-.005.013c-.07.211-.128.424-.173.638l-.007.038-.016.093a6.493 6.493 0 0 0-.081.604l-.005.066a5.105 5.105 0 0 0 .017.863c.006.056.01.112.018.168.149.353.338.664.551.942.811 1.057 1.995 1.603 2.837 1.87.326.098.664.178 1.013.243l.01.013h.002l.02-.02.117-.112.043-.04.127-.115.044-.04c.043-.037.088-.077.134-.115l.045-.039a9.32 9.32 0 0 1 .142-.117l.047-.038.148-.116.052-.04.154-.114.057-.041a7.14 7.14 0 0 1 .157-.113l.064-.044zm1.157-3.391h.001-.001m-.781-.133h-.034.047-.013m13.173 9.509a9.996 9.996 0 0 1-1.653 1.486 11.625 11.625 0 0 1-2.63 1.393c-1.199.449-2.07.556-2.07.556.722.286 1.578.185 2.157.054.398-.089.668-.192.668-.192a4.44 4.44 0 0 1-.002.692c-.02.238-.06.458-.117.661l-.004.017v.001a3.164 3.164 0 0 1-.277.678c-.012.022-.024.045-.037.066l.042-.03c.2-.142.396-.292.59-.449l.005-.003a11.607 11.607 0 0 0 1.126-1.038h.001l.001-.001.04-.043a10.322 10.322 0 0 0 1.274-1.743l.015-.024.137-.243.013-.024c.015-.027.027-.054.041-.08.062-.116.123-.232.179-.346l.04-.083c.03-.06.057-.12.085-.18l.062-.14.066-.15a14 14 0 0 0 .11-.27l.04-.105.077-.205c.01-.032.022-.063.033-.094l.01-.03.086-.252c-.036.042-.072.081-.108.121m-15.531-4.613a8.68 8.68 0 0 0-.52.268 6.685 6.685 0 0 0-1.504 1.125 4.337 4.337 0 0 0-.44.523l-.029.04-.037.055a3.56 3.56 0 0 0-.129.202 3.618 3.618 0 0 0-.208.412 3.297 3.297 0 0 0-.187 1.974v-.013l.003-.03v-.006l.005-.04v-.01l.008-.06.002-.015.012-.078.016-.087.004-.02.021-.097.004-.016.026-.1.004-.015.034-.114.008-.024.042-.12.002-.005a3.01 3.01 0 0 1 .08-.187l.033-.072.01-.02a2.437 2.437 0 0 1 .159-.273l.026-.038a2.12 2.12 0 0 1 .068-.093l.03-.037c.032-.04.065-.08.101-.12l.004-.003s-.502 1.646-.043 2.845l-.002-.01v-.008l-.004-.025v-.006a1.998 1.998 0 0 1-.006-.045v-.007a1.868 1.868 0 0 1-.006-.062v-.007l-.005-.077v-.007a2.924 2.924 0 0 1-.003-.089v-.008a2.497 2.497 0 0 1 .004-.222v-.009l.002-.02c.003-.045.008-.09.014-.136v-.01c.007-.045.014-.09.023-.136l.008-.043.006-.03a2.12 2.12 0 0 1 .03-.115l.001-.006a1.71 1.71 0 0 1 .057-.158c.005-.014.01-.028.017-.041.022-.052.047-.103.076-.152v-.002h.001a7.376 7.376 0 0 0 .114 1.063c.01.05.019.099.03.148a6.015 6.015 0 0 1 .156-1.777l.012-.051a6.43 6.43 0 0 1 .091-.332l.019-.061a7.41 7.41 0 0 1 .108-.318l.018-.048c.082-.217.172-.425.269-.623l.02-.044c.037-.074.076-.146.114-.217l.03-.057.028-.05c.049-.089.098-.175.149-.259l.024-.04c.053-.085.106-.17.16-.25l.002-.005a8.445 8.445 0 0 1 .351-.492l.057-.072c.118-.15.233-.287.34-.409.323-.365.581-.598.672-.676a9.053 9.053 0 0 0-.582.25" fill="#EFCFA5"/><path d="M104.614 240.877s-.009-.04-.031-.098c-.086-.22-.382-.73-1.27-.535-.93.205-1.15.992-1.2 1.257-.01.055-.013.09-.013.09l.029.018c.106-.115.335-.131.558-.027a.728.728 0 0 1 .247.185c.095.112.134.24.09.343a.212.212 0 0 1-.038.059s.038.01.101.02c.271.043 1.015.104 1.344-.444.015-.026.032-.05.046-.08-.082-.029-.14-.135-.156-.268a.667.667 0 0 1 .004-.204c.037-.217.167-.359.289-.316m-3.803 7.388a37.12 37.12 0 0 1-1.518.472h.07c.702 0 1.813-.032 3.132-.276 2.4-.442 5.49-1.583 8.055-4.51l.006-.01v-.005c-.017-.217-.096-.602-.41-.87a1.108 1.108 0 0 0-.186-.13l-.035-.015a2.504 2.504 0 0 1-.22-.102 2.32 2.32 0 0 1-.154-.077l-.007-.008a5.342 5.342 0 0 1-.75 1.063c-.707.807-1.664 1.524-2.714 2.146-1.747 1.035-3.747 1.813-5.269 2.322m-15.831-2.279c-.023.027-.047.052-.068.08l-.024.033a1.421 1.421 0 0 0-.07.111l-.012.02c-.026.048-.05.099-.074.15l-.003.007-.009.023-.015.037c-.012.032-.026.063-.037.095v.002l-.002.003-.003.012-.004.012a3.793 3.793 0 0 0-.17.784l-.001.003-.002.018v-.02c-.004-.041-.004-.081-.006-.121-.004-.085-.01-.17-.01-.255-.002-.07 0-.14.002-.211l.001-.067.002-.097.006-.09v-.003l.002-.033.001-.01.007-.11.003-.042.002-.026v-.004l.003-.036.005-.044c.005-.054.012-.107.018-.16v-.01l.014-.118v-.005l.002-.011c.011-.08.024-.16.037-.24l.003-.021.004-.022.007-.045c.022-.13.047-.258.074-.384l.004-.016c.023-.106.048-.212.074-.316l.003-.012.037-.135.002-.007.055-.201h.001v-.002l.003-.008.036-.115v-.002l.003-.007.021-.07.035-.111.01-.033-.074-.025-.013-.005-.027-.01a2.665 2.665 0 0 0-.496-.112L84.31 244a2.644 2.644 0 0 0-.929.055c-.024.005-.048.013-.072.019-.04.01-.077.023-.115.035l-.046.014a2.419 2.419 0 0 0-.23.091l-.07.03a2.74 2.74 0 0 0-.195.106l-.073.047-.085.057-.03.02-.09.069a2.618 2.618 0 0 0-.177.152c-.02.017-.037.036-.056.055a2.73 2.73 0 0 0-.322.39l-.017.027c-.02.028-.036.058-.053.086l-.002.005-.003.004-.035.058-.004.008-.005.008a2.6 2.6 0 0 0-.173.391l-.02.058a3.27 3.27 0 0 0-.055.2l-.02.08.022.048c.025.055.05.108.077.16l.009.018.009.018a4.675 4.675 0 0 0 .34.557l.036.052.01.012.01.015a3.993 3.993 0 0 0 .397.45l.03.028.022.02.033.028c-.01-.027-.017-.055-.027-.083a3.436 3.436 0 0 1-.144-.593l-.002-.011-.004-.023a3.656 3.656 0 0 1-.036-.374 4.84 4.84 0 0 0 .15.319l.01.022.004.008c.135.256.278.467.408.636a3.565 3.565 0 0 0 .45.487c-.078-.21-.13-.42-.165-.629a3.688 3.688 0 0 1-.05-.473c.057.142.12.273.183.395l.005.01c.23.44.486.752.658.935l.02.02a3.074 3.074 0 0 0 .123.122l.038.035.02.017-.01-.03a3.514 3.514 0 0 1-.185-.81l-.003-.036-.01-.102v-.02l-.001-.016a4.062 4.062 0 0 1-.008-.258 3.304 3.304 0 0 0 .129.266l.01.02.012.022a4.352 4.352 0 0 0 .637.893l.02.02.067.07.043.04a.983.983 0 0 0 .067.06l.006.006.02.01v-.047c0-.135.001-.273.005-.41l.001-.05c.004-.153.01-.307.018-.455 0-.02.002-.038.003-.057v-.01l.003-.052.004-.076a27.232 27.232 0 0 1 .044-.618l.003-.027c0-.014.002-.027.003-.04l.003-.039v-.004l.006-.065v-.006l.006-.057.008-.089v-.008l.007-.066.008-.084v-.001l.005-.042v-.002l.004-.037.008-.071.002-.018v-.006l.003-.02.001-.014v-.002l-.001.002-.026.03m20.411 4.267c.218-.106.41-.193.555-.278.292-.168.448-.276.433-.307-.015-.031-.199.016-.517.13-.16.058-.354.115-.577.194-.11.04-.234.072-.36.113-.129.038-.263.083-.407.117-.283.075-.606.152-.95.235l-.527.108-.564.098c-.774.117-1.635.188-2.527.136a5.334 5.334 0 0 1-1.583-.347l-.018-.007c.146-.943 1.091-1.19 1.091-1.19l-.028-.005h-.05a34.741 34.741 0 0 1-.574-.003c-.054 0-.093 0-.116.002-.584.032-.84.554-.923.778a1.883 1.883 0 0 0-.107.752c.025.43.195.886.578 1.246.256.242.671.432 1.195.56-.47-.22-.919-.69-1.05-1.513.52.149 1.11.206 1.552.23.947.054 1.843-.036 2.64-.183.198-.041.391-.08.579-.121l.543-.139c.34-.1.654-.196.947-.298.147-.046.28-.104.408-.155.127-.054.248-.098.357-.153" fill="#EFCFA5"/><path d="M103.282 239.694c.485-.049.833.063 1.08.256a2.51 2.51 0 0 0-.031-.75 2.437 2.437 0 0 0-.274-.766c-.048-.118-.284-.442-.523-.393-.309.057-.453.666-.323 1.362.02.101.044.198.071.29m-5.659 1.453c.559-.154 1.072-.087 1.42-.03.16.027.286.05.367.05.053.002.088-.008.1-.035.035-.027-.076-.153-.296-.278a1.846 1.846 0 0 0-.143-.073h-.002a2.165 2.165 0 0 0-.166-.068h-.001l-.004-.002a2.168 2.168 0 0 0-.156-.048l-.014-.005a2.323 2.323 0 0 0-.168-.037l-.027-.005a2.504 2.504 0 0 0-.176-.025l-.033-.002a2.278 2.278 0 0 0-.19-.01l-.047.001-.088.003-.055.003-.092.009-.054.006a2.83 2.83 0 0 0-.103.016l-.048.008c-.05.01-.102.021-.154.034l-.022.007c-.038.011-.073.024-.108.035-.037.013-.076.024-.112.037-.04.015-.075.031-.113.047l-.097.041c-.038.018-.073.037-.108.055l-.085.044c-.035.02-.068.041-.102.062-.024.015-.05.029-.071.044a1.89 1.89 0 0 0-.098.07c-.019.013-.04.027-.058.042-.034.025-.064.051-.095.077l-.043.037a2.04 2.04 0 0 0-.093.088l-.028.026a2.173 2.173 0 0 0-.103.112c-.222.26-.3.478-.244.503.015.014.043.01.078-.004.207-.081.74-.564 1.52-.802.038-.011.074-.023.112-.033m6.704.254c.017.133.074.24.156.269.122.043.251-.1.289-.317l.007-.057c.017-.196-.049-.376-.16-.415-.12-.043-.25.1-.288.317a.667.667 0 0 0-.004.203m-2.153.608a.722.722 0 0 0 .255.196c.225.105.459.088.563-.032a.199.199 0 0 0 .037-.059c.045-.104.006-.231-.089-.342a.73.73 0 0 0-.247-.186c-.223-.104-.451-.088-.558.027a.227.227 0 0 0-.043.064c-.042.1-.006.223.082.332m8.383 1.933v-.004l-.012.021a.077.077 0 0 0 .005-.005l.007-.012m.306 4.453l-.01.012c-.259.313-.57.624-.916.925-1.521 1.325-3.737 2.478-5.357 2.898l-.006.002-.006.002c-1.215.346-2.424.529-3.497.529a7.13 7.13 0 0 1-1.655-.178c-.523-.127-.939-.317-1.195-.56a1.838 1.838 0 0 1-.578-1.246 1.884 1.884 0 0 1 .107-.751c.083-.224.34-.746.924-.778a1.49 1.49 0 0 1 .115-.003l.2.002.375.002h.049a17.15 17.15 0 0 0 4.581-.613c2.076-.58 3.937-1.563 5.527-2.937.084-.072.167-.146.25-.22l.774-1.522c-2.564 2.922-5.65 4.062-8.05 4.504a17.07 17.07 0 0 1-3.131.276h-.07c-.21 0-.383-.004-.505-.004-.061 0-.11.001-.147.003a1.42 1.42 0 0 0-.507.123 1.62 1.62 0 0 0-.744.712c-.215.39-.31.875-.256 1.363.045.401.192.803.458 1.156l.031.044a2.34 2.34 0 0 0 .24.26c.584.554 1.73.88 3.207.88.998 0 2.147-.152 3.373-.479 3.596-1.107 5.196-2.494 5.9-3.417.051-.068.098-.133.14-.195.249-.365.347-.634.38-.75l.005-.015c.009-.03.012-.046.012-.046l-.018.021" fill="#59473C"/><path d="M104.464 223.144a3.306 3.306 0 0 0-1.086-.624 2.965 2.965 0 0 0-.214-.045 2.711 2.711 0 0 0-.112-.052 4.54 4.54 0 0 0-1.05-.128c-1.78-.017-3.699.846-4.785 1.426a25.053 25.053 0 0 0-.93.541c-.023.014-.046.03-.07.043l-.352-.318-.159-.144-.147-.133-1.517-1.373-.143-.13-.023.008-.323.113-.374.131a2.59 2.59 0 0 0-.781-.114c-.594-.004-1.328.15-2.148.464-.82.313-1.726.785-2.672 1.397-1.894 1.223-3.951 3.008-5.874 5.2a33.195 33.195 0 0 0-1.851 2.308 28.826 28.826 0 0 0-1.47 2.214c-.882 1.474-1.524 2.882-1.895 4.115-.247.821-.372 1.564-.375 2.187-.003.453.059.842.173 1.156.038.102.081.193.129.28.099.181.22.334.365.46l1.467 1.195.157.129.007-.011.106-.15.01-.013.04-.051a6.334 6.334 0 0 1 .172-.215l.066-.078.03-.034a6.654 6.654 0 0 1 .178-.19l.063-.064.01-.009a5.15 5.15 0 0 1 .308-.282l.074-.062a4.21 4.21 0 0 1 .129-.102l.075-.058c.045-.034.092-.066.138-.099l.074-.051.028-.02.004-.003.12-.076.067-.043.103-.06.09-.051.034-.02c.076-.042.154-.082.232-.12.025-.013.05-.023.076-.035l.082-.038.032-.015.049-.022.101-.041.026-.01.118-.047.112-.04c.046-.017.092-.033.14-.048l.058-.02a5.151 5.151 0 0 1 .199-.057l.122-.032.1-.024.04-.008.045-.011.025-.004c.166-.027.35-.047.551-.055l.031-.002a5.409 5.409 0 0 1 .832.037l.028-.069a22.95 22.95 0 0 1 2.213-4.11 21.04 21.04 0 0 1 4.343-4.696 19.456 19.456 0 0 1 1.416-1.022 16.787 16.787 0 0 1 1.425-.832 5.479 5.479 0 0 0-1.53.248 7.779 7.779 0 0 1 2.001-.96 8.197 8.197 0 0 1 2.083-.368c.535-.023.864.02.864.02a1.352 1.352 0 0 0-.307-.243 2.417 2.417 0 0 0-.63-.25 3.443 3.443 0 0 0-.356-.072 7.627 7.627 0 0 1 .53-.133 7.186 7.186 0 0 1 1.942-.14c.618.04 1 .147 1 .147a1.469 1.469 0 0 0-.405-.385 2.474 2.474 0 0 0-.34-.188 8.74 8.74 0 0 1 2.176.521l.074.03c.315.125.493.22.493.22a1.434 1.434 0 0 0-.325-.449 2.207 2.207 0 0 0-.103-.096l.015.005a3.22 3.22 0 0 1 .158.033c.135.031.342.086.587.172l.036.013.101.038a5.624 5.624 0 0 1 .652.299 4.62 4.62 0 0 1 .577.375l.057.044a3.383 3.383 0 0 1 .555.562c.13.167.246.352.34.556l.015.035c.043-.059.12-.164.219-.308.823-1.19 3.205-5.026 1.259-6.969" fill="#141B26"/><path d="M92.945 223.881l-.13-.633.24-.745.124-.044a2.59 2.59 0 0 0-.781-.114c-.594-.004-1.328.15-2.148.464-.82.313-1.726.785-2.672 1.397-1.894 1.223-3.951 3.008-5.874 5.2a33.195 33.195 0 0 0-1.851 2.308 28.826 28.826 0 0 0-1.47 2.214c-.882 1.474-1.524 2.882-1.895 4.115-.247.821-.372 1.564-.375 2.187-.003.453.059.842.173 1.156.038.102.081.193.129.28.099.181.22.334.365.46l1.467 1.195.157.129.007-.011.106-.15.01-.013.04-.051a6.334 6.334 0 0 1 .172-.215l.066-.078.03-.034a6.654 6.654 0 0 1 .178-.19l.063-.064.01-.009a5.15 5.15 0 0 1 .308-.282l.074-.062a4.21 4.21 0 0 1 .129-.102l.075-.058c.045-.034.092-.066.138-.099l.074-.051.028-.02.001-.005c.21-.89.566-1.87 1.057-2.906.602-1.272 1.405-2.627 2.386-3.997a33.71 33.71 0 0 1 2.056-2.586 33.238 33.238 0 0 1 2.983-3 27.158 27.158 0 0 1 2.018-1.618l.189-.138a21.815 21.815 0 0 1 1.659-1.066l-.218-.204-.036-.034-.269-.251-1.54-1.443-.126-1.147-.017-.014.918-.392 1.972.721" fill="#3578AD"/><path fill="#4D94C3" d="M93.375 224.039l.051.018-.001-.006-.05-.012"/><path d="M93.899 222.207l-.845.296.37 1.548-2.451-.891-.918.392.017.014 3.188 2.83.025-.02.033-.026.244-.194.085-.068c.118-.093.237-.183.356-.273l-1.355-1.21 2.042.706.007-.005.163-.114-.342-1.34.996.898.01-.007.207-.133.022-.013.033-.022.035-.022.088-.057.018-.01c.098-.062.194-.122.29-.18l-2.318-2.099" fill="#FACE55"/><path fill="#4D94C3" d="M93.066 222.551l-.012-.048.012.048m-.012-.048l.125-.044a2.59 2.59 0 0 0-.781-.114c-.594-.004-1.328.15-2.148.464-.82.313-1.726.785-2.672 1.397-1.894 1.223-3.951 3.008-5.874 5.2a33.195 33.195 0 0 0-1.851 2.308l2.998 2.859a34.392 34.392 0 0 1 2.036-2.555 33.925 33.925 0 0 1 3.045-3.06 26.465 26.465 0 0 1 2.963-2.278l-.698-1.967-.125-1.147-.017-.014.918-.392 1.972.721-.13-.633.24-.745"/><path d="M93.054 222.503l-.239.745.13.633.48.17-.37-1.548m-.407 2.103l2.042.705-.687.504-1.355-1.21m1.87-.752l.342 1.339.654-.442-.996-.897" fill="#141B26"/><path d="M101.762 222.496c.118-.019.234-.034.35-.045.325-.031.635-.03.932.008.016.003.032.003.048.005h.004l.012.002.03.005.026.004a2.711 2.711 0 0 0-.112-.052 4.54 4.54 0 0 0-1.05-.128c-1.78-.017-3.699.846-4.785 1.426a25.053 25.053 0 0 0-.93.541c-.023.014-.046.03-.07.043l-.29.18-.018.011-.088.057-.035.022-.033.022-.022.013-.207.133-.01.007-.006.004-.05.032-.01.006-.037.025a26.82 26.82 0 0 0-.54.367l-.011.008-.163.114-.007.005c-.176.125-.351.252-.525.382l-.055.04-.046.035c-.015.01-.029.022-.043.033l-.018.014c-.12.09-.238.18-.356.273l-.085.068-.244.194-.033.027-.025.02a33.944 33.944 0 0 0-1.745 1.52l-.136.13a41.834 41.834 0 0 0-2.642 2.742 53.175 53.175 0 0 0-2.497 3.063c-.425.534-.79 1.01-1.084 1.41-.592.8-.91 1.29-.893 1.298.007.006.06-.056.154-.173l-.226.331a64.78 64.78 0 0 1 4.326-5.225 47.396 47.396 0 0 1 3.022-2.994 38.823 38.823 0 0 1 1.872-1.581l.232-.18a18.29 18.29 0 0 1 .382-.292 24.844 24.844 0 0 1 .688-.504l.189-.134c.2-.139.4-.274.6-.407l.05-.033.095-.062.125-.083.047-.031.006-.004.085-.054.018-.01.01-.007a34.429 34.429 0 0 1 .31-.197l.085-.051.302-.186.083-.05.043-.025.085-.05c.117-.07.234-.14.349-.205l.309-.174c.58-.325 1.127-.604 1.64-.835.983-.444 1.846-.725 2.618-.848" fill="#FFF"/><rect width="66" height="66" rx="8.5" stroke="#CFD9E2" stroke-width=".735" fill="#FFF" stroke-linecap="square" opacity=".8" filter="url(#g)" stroke-opacity=".304" transform="translate(3 150)"/><path d="M24 167.347c0-.865.692-1.566 1.556-1.566H39.63l9.369 9.4v23.4a1.56 1.56 0 0 1-1.564 1.562H25.564A1.565 1.565 0 0 1 24 198.577v-31.23z" fill="#21A464"/><path d="M16.114 9.696L25 17.18l-8.886-.457V9.696z" fill="url(#h)" opacity=".606" transform="rotate(180 32.557 95.938)"/><path d="M39.625 165.775l9.373 9.377h-7.804a1.57 1.57 0 0 1-1.569-1.57v-7.807z" fill="#8ED1B1"/><g fill="#FFF"><path d="M31.422 184.133v8.2h10.156v-8.2H31.422zm11.328-1.171v10.543h-12.5v-10.543h12.5z"/><path d="M41.578 189.21H30.836v1.171h11.328v-1.171h-.586zm0-3.124H30.836v1.171h11.328v-1.171h-.586z"/><path d="M35.914 183.743v9.567h1.172v-10.153h-1.172v.586z"/></g><rect width="80" height="80" rx="8.5" stroke="#CFD9E2" stroke-width=".735" fill="#FFF" stroke-linecap="square" filter="url(#i)" stroke-opacity=".304" transform="translate(274 2)"/><path d="M322.814 41.34a8.617 8.617 0 0 0-1.663.1c.147-1.185.636-2.639 2.37-2.578 1.919.066 2.187 1.878 2.194 3.106-.809-.36-1.81-.59-2.901-.629m8.204-12.857c-.32-1.716-1.341-2.562-2.264-2.894-.996-.36-3.015-.733-5.553-1.032-2.04-.24-4.44-.22-5.89-.176-.173-1.19-1.009-2.278-1.944-2.654-2.49-1.002-6.34-.76-7.328-.484-.785.22-1.654.67-2.138 1.362-.324.462-.534 1.055-.536 1.883 0 .469.013 1.573.025 2.554.012.984.025 1.864.025 1.87 0 .876-.71 1.589-1.591 1.59h-4.04c-.86 0-1.519.144-2.022.373-.503.228-.86.536-1.131.9-.54.724-.633 1.617-.631 2.529 0 0 .008.744.188 2.186.149 1.115 1.36 8.907 2.509 11.276.445.922.742 1.306 1.618 1.713 1.951.834 6.408 1.763 8.497 2.03 2.085.266 3.393.826 4.173-.808.003-.004.157-.406.368-.997.677-2.05.771-3.87.771-5.186 0-.134.197-.14.197 0 0 .93-.178 4.219 2.308 5.1.982.349 3.018.659 5.087.901 1.87.215 3.228.95 3.228 5.747 0 2.917-.614 3.317-3.82 3.317-2.598 0-3.589.068-3.589-1.996 0-1.667 1.65-1.492 2.874-1.492.546 0 .15-.407.15-1.435 0-1.024.64-1.615.034-1.63-4.23-.117-6.718-.005-6.718 5.28 0 4.8 1.838 5.691 7.84 5.691 4.707 0 6.366-.154 8.31-6.18.385-1.19 1.315-4.82 1.877-10.916.356-3.854-.335-15.486-.884-18.422m-31.422.846h4.04a.419.419 0 0 0 .419-.417c0-.002-.05-3.46-.05-4.422v-.012c0-.79.166-1.479.455-2.056l.138-.259a.085.085 0 0 0-.046.026l-7.846 7.775a.088.088 0 0 0-.03.046c.163-.08.385-.19.416-.204.683-.308 1.512-.477 2.504-.477" fill="#2DBF60"/><g transform="translate(120 105)"><rect stroke-opacity=".304" stroke="#CFD9E2" stroke-width=".735" stroke-linecap="square" fill="#FFF" opacity=".85" filter="url(#j)" width="76" height="76" rx="8.5"/><g transform="translate(24.246 20)"><mask id="l" fill="#fff"><use xlink:href="#k"/></mask><path d="M19.741 2.29a3.294 3.294 0 1 0-6.267 2.035l8.52 26.213a3.295 3.295 0 0 0 4.008 2.043c1.749-.503 2.815-2.36 2.257-4.078L19.74 2.289" fill="#E8A723" mask="url(#l)"/><path d="M6.54 6.578A3.295 3.295 0 0 0 .273 8.615l8.52 26.213A3.294 3.294 0 0 0 12.8 36.87c1.75-.503 2.815-2.36 2.257-4.078L6.54 6.578" fill="#3EB890" mask="url(#l)"/></g><path d="M54.71 43.999a3.295 3.295 0 1 0-2.035-6.268l-26.213 8.52a3.294 3.294 0 0 0-2.043 4.008c.503 1.749 2.36 2.815 4.078 2.257l26.214-8.517" fill="#E01765"/><path d="M31.925 51.402l6.265-2.035-2.036-6.266-6.265 2.037 2.036 6.264" fill="#472A49"/><path d="M45.126 47.113l6.265-2.036-2.036-6.267-6.265 2.037 2.036 6.266" fill="#CC2027"/><path d="M50.422 30.797a3.295 3.295 0 0 0-2.037-6.267l-26.213 8.52a3.294 3.294 0 0 0-2.042 4.008c.503 1.749 2.36 2.815 4.078 2.257l26.214-8.518" fill="#70CADB"/><path d="M27.634 38.201l6.266-2.036-2.035-6.265-6.267 2.036 2.036 6.265" fill="#1A937D"/><path d="M40.836 33.912l6.266-2.036-2.036-6.267-6.267 2.037 2.037 6.266" fill="#65863A"/></g><rect width="66" height="66" rx="8.5" stroke="#CFD9E2" stroke-width=".735" fill="#FFF" stroke-linecap="square" opacity=".9" filter="url(#m)" stroke-opacity=".304" transform="translate(225 66)"/><g transform="translate(242 88)"><mask id="o" fill="#fff"><use xlink:href="#n"/></mask><path d="M31.269.545c-.383-.578-1.134-.72-1.68-.313L0 22.193c.218.329.578.546.986.545h29.296c.665 0 1.205-.572 1.205-1.28v-20.2a1.328 1.328 0 0 0-.218-.713M1.898.232C1.353-.174.601-.033.218.545A1.33 1.33 0 0 0 0 1.258v20.24L14.088 9.266 1.898.232" fill="#19A9E5" mask="url(#o)"/></g><g stroke="#FF4A00" stroke-width=".95"><use stroke-linecap="square" fill="#FFF" filter="url(#p)" xlink:href="#q" transform="translate(101 315)"/><path d="M128.46 349.392c-2.625 0-3.43-1.655-1.785-3.711l9.743-12.185c1.639-2.05 2.393-1.668 1.68.87l-3.002 10.691h3.575c2.619 0 3.35 1.61 1.638 3.593l-11.498 13.307c-1.373 1.589-1.893 1.282-1.161-.686l4.414-11.88h-3.605z" fill="#FF4A00"/></g></g></svg>